#!OML:ASF E:\Mandelcareful walks\Project 1\Capture day 1\Session 1\Subject1.ASF
:FULLY-SPECIFIED
:DEGREES
491
root -0.0323243 16.0133 2.01036 -399.987 95.4453 -408.595
lowerback 31.4759 0.134809 -1.15175
upperback 6.91536 0.529891 0.0290105
thorax -9.41687 0.569355 0.449569
lowerneck -27.0039 0.678042 -3.09607
upperneck 24.6472 3.43998 -3.22971
head 12.7293 0.800171 -0.0887964
rclavicle -1.19271e-015 7.15625e-015
rhumerus -16.1574 4.87874 -79.1341
rradius 49.632
rwrist -19.0804
rhand -14.5647 -26.3546
rfingers 7.12502
rthumb 11.5846 -56.0144
lclavicle -1.19271e-015 7.15625e-015
lhumerus -15.6547 -11.6508 86.4649
lradius 43.5613
lwrist 17.4949
lhand -22.9842 -12.3557
lfingers 7.12502
lthumb 3.45836 17.596
rfemur -35.8238 -11.995 14.0565
rtibia 50.1933
rfoot -20.9756 -4.51583
rtoes 2.47792
lfemur -30.5997 8.03872 -15.0712
ltibia 47.8327
lfoot -21.4301 -2.52573
ltoes 0.905097
492
root -0.0205236 16.0151 1.99191 -399.569 95.5624 -408.031
lowerback 31.3972 0.0620481 -1.14678
upperback 7.02037 0.446742 -0.0167121
thorax -9.25657 0.533937 0.427393
lowerneck -27.0642 0.546658 -3.33207
upperneck 24.6148 3.23895 -2.87587
head 12.7139 0.737648 0.0491906
rclavicle -6.75868e-015 -1.90833e-014
rhumerus -16.0836 4.538 -79.2398
rradius 49.6139
rwrist -18.9109
rhand -14.0249 -27.3579
rfingers 7.12502
rthumb 12.1051 -56.9877
lclavicle -6.75868e-015 -1.90833e-014
lhumerus -15.4979 -11.7212 86.37
lradius 43.5613
lwrist 17.4781
lhand -22.7206 -11.7031
lfingers 7.12502
lthumb 3.71291 18.2443
rfemur -35.5212 -12.073 13.8994
rtibia 50.1588
rfoot -21.0352 -4.56743
rtoes 2.25044
lfemur -30.4396 7.88412 -15.1578
ltibia 47.8907
lfoot -21.4868 -2.49677
ltoes 0.864669
493
root -0.0106835 16.0154 1.97091 -398.405 95.5155 -406.747
lowerback 31.3798 -0.0457274 -1.06431
upperback 7.10105 0.347219 -0.00278661
thorax -9.15393 0.488981 0.433421
lowerneck -27.1048 0.576734 -3.24638
upperneck 24.5169 3.24531 -2.90161
head 12.6838 0.745763 0.026153
rclavicle -3.57812e-015 2.38542e-015
rhumerus -16.019 4.54269 -79.3198
rradius 49.6407
rwrist -18.822
rhand -13.9935 -27.6681
rfingers 7.12502
rthumb 12.1354 -57.2961
lclavicle -3.57812e-015 2.38542e-015
lhumerus -15.2857 -11.5799 86.2464
lradius 43.526
lwrist 17.6822
lhand -22.3116 -11.4051
lfingers 7.12502
lthumb 4.10783 18.535
rfemur -35.2842 -12.052 13.9188
rtibia 50.1138
rfoot -21.0592 -4.66509
rtoes 2.26178
lfemur -30.2924 7.79417 -15.0661
ltibia 47.9422
lfoot -21.4654 -2.47981
ltoes 0.29265
494
root -0.00402454 16.0164 1.94744 -399.025 95.4036 -407.333
lowerback 31.3918 -0.0498249 -1.10722
upperback 7.06081 0.323712 0.00353613
thorax -9.20548 0.477155 0.474314
lowerneck -26.9849 0.618319 -3.14014
upperneck 24.4855 3.28391 -3.00259
head 12.6524 0.761484 -0.0233932
rclavicle -9.93923e-015 -2.26615e-014
rhumerus -16.1656 4.77809 -79.3338
rradius 49.6723
rwrist -18.9033
rhand -14.5035 -27.0152
rfingers 7.12502
rthumb 11.6436 -56.6717
lclavicle -9.93923e-015 -2.26615e-014
lhumerus -15.2912 -11.5608 86.2332
lradius 43.6362
lwrist 18.1149
lhand -22.1767 -11.0536
lfingers 7.12502
lthumb 4.23817 18.884
rfemur -35.2218 -11.9888 13.859
rtibia 50.0655
rfoot -20.994 -4.69696
rtoes 2.24983
lfemur -30.2178 7.84116 -15.1124
ltibia 47.9994
lfoot -21.5576 -2.43781
ltoes 0.372545
495
root 0.00112963 16.0172 1.92501 -400.133 95.3561 -408.437
lowerback 31.4185 -0.00219933 -1.18763
upperback 6.95768 0.343881 -0.0187955
thorax -9.33701 0.484415 0.487642
lowerneck -26.9174 0.547017 -3.22955
upperneck 24.6391 3.18749 -2.86566
head 12.6962 0.727976 0.026364
rclavicle 2.26615e-014 1.59028e-015
rhumerus -16.4201 4.7807 -79.3836
rradius 49.6677
rwrist -18.9417
rhand -14.828 -26.7365
rfingers 7.12502
rthumb 11.3306 -56.4104
lclavicle 2.26615e-014 1.59028e-015
lhumerus -15.4442 -11.6658 86.2843
lradius 43.719
lwrist 18.3261
lhand -22.2276 -10.8433
lfingers 7.12502
lthumb 4.18902 19.0952
rfemur -35.1883 -11.9429 13.7219
rtibia 50.0208
rfoot -20.9738 -4.67319
rtoes 2.1642
lfemur -30.1974 7.85454 -15.2443
ltibia 48.0629
lfoot -21.6846 -2.36265
ltoes 0.806943
496
root 0.00598274 16.0181 1.9042 -399.87 95.3185 -408.145
lowerback 31.4494 -0.00961928 -1.18243
upperback 6.86371 0.323314 -0.0395302
thorax -9.45949 0.471726 0.468524
lowerneck -26.8181 0.530593 -3.13885
upperneck 24.742 3.1015 -2.77884
head 12.7168 0.710581 0.0289108
rclavicle 7.95139e-016 1.47101e-014
rhumerus -16.6214 4.6429 -79.4955
rradius 49.6752
rwrist -18.8852
rhand -14.758 -26.885
rfingers 7.12502
rthumb 11.3981 -56.5552
lclavicle 7.95139e-016 1.47101e-014
lhumerus -15.5818 -11.6549 86.2537
lradius 43.6687
lwrist 18.1991
lhand -22.1031 -10.597
lfingers 7.12502
lthumb 4.30923 19.3392
rfemur -35.1069 -11.9235 13.6775
rtibia 49.9736
rfoot -20.9841 -4.65298
rtoes 1.89956
lfemur -30.1799 7.79199 -15.2674
ltibia 48.1208
lfoot -21.7496 -2.2683
ltoes 0.823744
497
root 0.0100847 16.0195 1.88307 -400.173 95.2016 -408.493
lowerback 31.285 -0.0223243 -1.19778
upperback 6.86462 0.295849 -0.073493
thorax -9.37919 0.456793 0.450591
lowerneck -26.7345 0.552005 -3.00162
upperneck 24.6544 3.06769 -2.79558
head 12.6671 0.709139 -0.0068129
rclavicle -2.18663e-014 -3.06128e-014
rhumerus -16.5899 4.65777 -79.5948
rradius 49.6477
rwrist -18.912
rhand -14.6335 -26.8885
rfingers 7.12502
rthumb 11.5182 -56.552
lclavicle -2.18663e-014 -3.06128e-014
lhumerus -15.5481 -11.475 86.1437
lradius 43.575
lwrist 17.9895
lhand -21.8552 -9.94223
lfingers 7.12502
lthumb 4.54863 19.9889
rfemur -35.1462 -11.8823 13.6705
rtibia 49.9398
rfoot -20.9046 -4.57801
rtoes 2.12038
lfemur -30.2119 7.78148 -15.2798
ltibia 48.1903
lfoot -21.865 -2.204
ltoes 1.09318
498
root 0.0140425 16.0206 1.8618 -401.409 94.9798 -409.79
lowerback 31.1087 0.0368747 -1.24853
upperback 6.92335 0.36136 -0.0387531
thorax -9.22872 0.487423 0.496231
lowerneck -26.8616 0.478351 -3.14919
upperneck 24.6304 3.01924 -2.76503
head 12.6797 0.676223 0.0206095
rclavicle 9.93923e-015 1.82882e-014
rhumerus -16.4782 4.63503 -79.5545
rradius 49.6668
rwrist -18.8916
rhand -14.5761 -26.6134
rfingers 7.12502
rthumb 11.5736 -56.2738
lclavicle 9.93923e-015 1.82882e-014
lhumerus -15.365 -11.3478 86.174
lradius 43.452
lwrist 17.9464
lhand -21.6386 -9.66901
lfingers 7.12502
lthumb 4.75773 20.2576
rfemur -35.2285 -11.7326 13.6911
rtibia 49.9074
rfoot -20.8243 -4.51787
rtoes 2.21955
lfemur -30.2399 7.88173 -15.2702
ltibia 48.2874
lfoot -21.9679 -2.12881
ltoes 0.874062
499
root 0.0128135 16.0175 1.83873 -403.053 94.7737 -411.475
lowerback 31.1076 0.131078 -1.34812
upperback 6.95188 0.456747 0.0175632
thorax -9.19775 0.533984 0.582102
lowerneck -27.1329 0.404642 -3.34466
upperneck 24.7656 2.97895 -2.63944
head 12.7813 0.650181 0.0945587
rclavicle 1.23246e-014 2.06736e-014
rhumerus -16.4535 4.58762 -79.479
rradius 49.7948
rwrist -18.844
rhand -14.5677 -26.1824
rfingers 7.12502
rthumb 11.5817 -55.8423
lclavicle 1.23246e-014 2.06736e-014
lhumerus -15.164 -11.3945 86.2734
lradius 43.2635
lwrist 18.0249
lhand -21.8137 -10.6464
lfingers 7.12502
lthumb 4.58865 19.2839
rfemur -35.3226 -11.5855 13.6763
rtibia 49.8742
rfoot -20.7537 -4.4465
rtoes 1.82436
lfemur -30.3022 8.00788 -15.3113
ltibia 48.3981
lfoot -22.0594 -1.97905
ltoes 0.617821
500
root 0.00909133 16.0153 1.81311 -404.21 94.6407 -412.672
lowerback 31.0986 0.145195 -1.36675
upperback 7.00151 0.468823 -0.0184388
thorax -9.1364 0.540619 0.5479
lowerneck -27.3493 0.39601 -3.33302
upperneck 24.7866 2.92886 -2.51292
head 12.8281 0.642467 0.132557
rclavicle 1.55052e-014 2.90226e-014
rhumerus -16.2652 4.55684 -79.5518
rradius 49.7257
rwrist -18.8454
rhand -14.414 -26.2722
rfingers 7.12502
rthumb 11.7299 -55.9238
lclavicle 1.55052e-014 2.90226e-014
lhumerus -14.977 -11.4882 86.2203
lradius 43.1808
lwrist 18.0854
lhand -22.3029 -11.4096
lfingers 7.12502
lthumb 4.11624 18.5304
rfemur -35.4024 -11.5865 13.6421
rtibia 49.8374
rfoot -20.671 -4.30992
rtoes 1.56949
lfemur -30.3889 8.06774 -15.3866
ltibia 48.5019
lfoot -22.1674 -1.86404
ltoes 0.898342
501
root 0.0113359 16.0201 1.79103 -403.475 94.5753 -411.908
lowerback 31.0999 0.0906062 -1.24884
upperback 7.05782 0.440963 -0.0329456
thorax -9.07164 0.527104 0.473746
lowerneck -27.3907 0.370071 -3.24643
upperneck 24.6841 2.8517 -2.526
head 12.7958 0.615949 0.0986331
rclavicle -2.38542e-014 -3.97569e-014
rhumerus -16.0767 4.50277 -79.5824
rradius 49.5846
rwrist -18.8136
rhand -14.172 -27.0259
rfingers 7.12502
rthumb 11.9632 -56.6641
lclavicle -2.38542e-014 -3.97569e-014
lhumerus -14.8852 -11.5511 86.1852
lradius 43.2668
lwrist 18.1485
lhand -22.3084 -11.0482
lfingers 7.12502
lthumb 4.11093 18.8919
rfemur -35.3099 -11.6843 13.6733
rtibia 49.7873
rfoot -20.6694 -4.24911
rtoes 1.34816
lfemur -30.378 8.04383 -15.3633
ltibia 48.5814
lfoot -22.2238 -1.86282
ltoes 0.892201
